<?xml version="1.0" encoding="UTF-8"?>
<svg xmlns="http://www.w3.org/2000/svg" xmlns:xlink="http://www.w3.org/1999/xlink" viewBox="0 0 32 32" width="32px" height="32px">
<g id="surface32480657">
<path style=" stroke:none;fill-rule:nonzero;fill:rgb(18.039216%,80.000001%,44.313726%);fill-opacity:1;" d="M 6.5 3 C 4.570312 3 3 4.570312 3 6.5 L 3 25.5 C 3 27.429688 4.570312 29 6.5 29 L 25.5 29 C 27.429688 29 29 27.429688 29 25.5 L 29 6.5 C 29 4.570312 27.429688 3 25.5 3 Z M 6.5 4 L 25.5 4 C 26.878906 4 28 5.121094 28 6.5 L 28 25.5 C 28 26.878906 26.878906 28 25.5 28 L 6.5 28 C 5.121094 28 4 26.878906 4 25.5 L 4 6.5 C 4 5.121094 5.121094 4 6.5 4 Z M 6 6 C 5.722656 6 5.5 6.226562 5.5 6.5 L 5.5 7.5 C 5.5 7.773438 5.722656 8 6 8 C 6.277344 8 6.5 7.773438 6.5 7.5 L 6.5 6.5 C 6.5 6.226562 6.277344 6 6 6 Z M 8.5 6 C 8.222656 6 8 6.226562 8 6.5 L 8 7.5 C 8 7.773438 8.222656 8 8.5 8 C 8.777344 8 9 7.773438 9 7.5 L 9 6.5 C 9 6.226562 8.777344 6 8.5 6 Z M 11 6 C 10.722656 6 10.5 6.226562 10.5 6.5 L 10.5 7.5 C 10.5 7.773438 10.722656 8 11 8 C 11.277344 8 11.5 7.773438 11.5 7.5 L 11.5 6.5 C 11.5 6.226562 11.277344 6 11 6 Z M 13.5 6 C 13.222656 6 13 6.226562 13 6.5 L 13 7.5 C 13 7.773438 13.222656 8 13.5 8 C 13.777344 8 14 7.773438 14 7.5 L 14 6.5 C 14 6.226562 13.777344 6 13.5 6 Z M 16 6 C 15.722656 6 15.5 6.226562 15.5 6.5 L 15.5 7.5 C 15.5 7.773438 15.722656 8 16 8 C 16.277344 8 16.5 7.773438 16.5 7.5 L 16.5 6.5 C 16.5 6.226562 16.277344 6 16 6 Z M 18.5 6 C 18.222656 6 18 6.226562 18 6.5 L 18 7.5 C 18 7.773438 18.222656 8 18.5 8 C 18.777344 8 19 7.773438 19 7.5 L 19 6.5 C 19 6.226562 18.777344 6 18.5 6 Z M 21 6 C 20.722656 6 20.5 6.226562 20.5 6.5 L 20.5 7.5 C 20.5 7.773438 20.722656 8 21 8 C 21.277344 8 21.5 7.773438 21.5 7.5 L 21.5 6.5 C 21.5 6.226562 21.277344 6 21 6 Z M 23.5 6 C 23.222656 6 23 6.226562 23 6.5 L 23 7.5 C 23 7.773438 23.222656 8 23.5 8 C 23.777344 8 24 7.773438 24 7.5 L 24 6.5 C 24 6.226562 23.777344 6 23.5 6 Z M 26 6 C 25.722656 6 25.5 6.226562 25.5 6.5 L 25.5 7.5 C 25.5 7.773438 25.722656 8 26 8 C 26.277344 8 26.5 7.773438 26.5 7.5 L 26.5 6.5 C 26.5 6.226562 26.277344 6 26 6 Z M 9.75 9 C 8.507812 9 7.5 10.007812 7.5 11.25 C 7.5 12.492188 8.507812 13.5 9.75 13.5 C 10.992188 13.5 12 12.492188 12 11.25 C 12 10.007812 10.992188 9 9.75 9 Z M 9.75 9.835938 C 10.527344 9.835938 11.164062 10.46875 11.164062 11.25 C 11.164062 12.027344 10.53125 12.664062 9.75 12.664062 C 8.972656 12.664062 8.335938 12.03125 8.335938 11.25 C 8.335938 10.472656 8.96875 9.835938 9.75 9.835938 Z M 19.9375 13.71875 C 18.777344 13.71875 17.863281 14.125 17.214844 14.65625 L 17.214844 14.484375 C 17.214844 14.210938 16.992188 13.984375 16.714844 13.984375 L 13.5 13.984375 C 13.226562 13.984375 13 14.210938 13 14.484375 L 13 25.5 C 13 25.773438 13.226562 26 13.5 26 L 16.851562 26 C 17.128906 26 17.351562 25.773438 17.351562 25.5 L 17.351562 19.945312 C 17.351562 18.289062 17.761719 17.671875 18.867188 17.671875 C 19.929688 17.671875 20.109375 18.402344 20.109375 20.035156 L 20.109375 25.5 C 20.109375 25.773438 20.332031 26 20.609375 26 L 23.960938 26 C 24.238281 26 24.460938 25.773438 24.460938 25.5 L 24.460938 19.363281 C 24.464844 16.574219 23.925781 13.71875 19.9375 13.71875 Z M 8 14 C 7.722656 14 7.5 14.226562 7.5 14.5 L 7.5 25.5 C 7.5 25.773438 7.722656 26 8 26 L 11.5 26 C 11.777344 26 12 25.773438 12 25.5 L 12 14.5 C 12 14.226562 11.777344 14 11.5 14 Z M 19.9375 14.71875 C 22.875 14.71875 23.460938 16.492188 23.460938 19.363281 L 23.460938 25 L 21.105469 25 L 21.105469 20.03125 C 21.105469 18.855469 21.105469 16.667969 18.863281 16.667969 C 16.351562 16.667969 16.351562 19.132812 16.351562 19.945312 L 16.351562 25 L 14 25 L 14 14.984375 L 16.21875 14.984375 L 16.21875 15.960938 C 16.21875 16.238281 16.484375 16.460938 16.761719 16.460938 C 16.949219 16.460938 17.117188 16.359375 17.203125 16.195312 C 17.5625 15.511719 18.496094 14.71875 19.9375 14.71875 Z M 8.5 15 L 11 15 L 11 25 L 8.5 25 Z M 8.5 15 "/>
</g>
</svg>
