<?xml version="1.0" encoding="UTF-8"?>
<svg xmlns="http://www.w3.org/2000/svg" xmlns:xlink="http://www.w3.org/1999/xlink" viewBox="0 0 24 24" width="24px" height="24px">
<g id="surface31918209">
<rect x="0" y="0" width="24" height="24" style="fill:rgb(100%,100%,100%);fill-opacity:1;stroke:none;"/>
<path style=" stroke:none;fill-rule:nonzero;fill:rgb(100%,100%,100%);fill-opacity:1;" d="M 18.847656 0.488281 C 18.753906 0.503906 18.664062 0.554688 18.605469 0.640625 L 18.167969 1.253906 C 18.050781 1.421875 18.089844 1.65625 18.257812 1.773438 C 18.324219 1.820312 18.398438 1.84375 18.476562 1.84375 C 18.59375 1.84375 18.707031 1.789062 18.78125 1.6875 L 19.214844 1.074219 C 19.335938 0.90625 19.296875 0.671875 19.128906 0.550781 C 19.042969 0.492188 18.941406 0.472656 18.847656 0.488281 Z M 7.714844 1.941406 C 7.234375 1.925781 6.777344 2.023438 6.375 2.257812 C 5.730469 2.628906 5.316406 3.292969 5.109375 4.105469 C 4.902344 4.917969 4.882812 5.890625 5.027344 6.980469 C 5.074219 7.335938 5.144531 7.710938 5.226562 8.089844 C 4.859375 8.210938 4.5 8.332031 4.167969 8.472656 C 3.152344 8.890625 2.316406 9.394531 1.71875 9.980469 C 1.117188 10.566406 0.75 11.257812 0.75 12 C 0.75 12.742188 1.117188 13.433594 1.71875 14.019531 C 2.316406 14.605469 3.152344 15.109375 4.167969 15.527344 C 4.5 15.667969 4.859375 15.789062 5.226562 15.910156 C 5.144531 16.289062 5.074219 16.664062 5.027344 17.019531 C 4.882812 18.109375 4.902344 19.082031 5.109375 19.894531 C 5.316406 20.707031 5.730469 21.371094 6.375 21.742188 C 7.019531 22.113281 7.800781 22.140625 8.609375 21.914062 C 9.414062 21.6875 10.269531 21.21875 11.140625 20.546875 C 11.425781 20.328125 11.710938 20.082031 12 19.820312 C 12.289062 20.082031 12.574219 20.328125 12.859375 20.546875 C 13.730469 21.21875 14.585938 21.6875 15.390625 21.914062 C 16.199219 22.140625 16.980469 22.113281 17.625 21.742188 C 18.269531 21.371094 18.683594 20.707031 18.890625 19.894531 C 19.097656 19.082031 19.117188 18.109375 18.972656 17.019531 C 18.925781 16.664062 18.855469 16.289062 18.773438 15.910156 C 19.140625 15.792969 19.5 15.667969 19.832031 15.527344 C 20.847656 15.109375 21.683594 14.605469 22.28125 14.019531 C 22.882812 13.433594 23.25 12.742188 23.25 12 C 23.25 11.257812 22.882812 10.566406 22.28125 9.980469 C 21.683594 9.394531 20.847656 8.890625 19.832031 8.472656 C 19.5 8.332031 19.140625 8.207031 18.773438 8.089844 C 18.855469 7.710938 18.925781 7.335938 18.972656 6.980469 C 19.117188 5.890625 19.097656 4.917969 18.890625 4.105469 C 18.683594 3.292969 18.269531 2.628906 17.625 2.257812 C 16.980469 1.886719 16.199219 1.859375 15.390625 2.085938 C 14.585938 2.3125 13.730469 2.78125 12.859375 3.453125 C 12.574219 3.671875 12.289062 3.917969 12 4.179688 C 11.710938 3.917969 11.425781 3.671875 11.140625 3.453125 C 10.269531 2.78125 9.414062 2.308594 8.609375 2.085938 C 8.304688 2 8.003906 1.949219 7.714844 1.941406 Z M 20.214844 2.027344 C 20.164062 2.03125 20.117188 2.046875 20.070312 2.070312 L 19.40625 2.417969 C 19.222656 2.515625 19.152344 2.742188 19.25 2.925781 C 19.316406 3.054688 19.445312 3.125 19.582031 3.125 C 19.640625 3.125 19.699219 3.113281 19.753906 3.082031 L 20.417969 2.734375 C 20.601562 2.636719 20.671875 2.410156 20.578125 2.230469 C 20.503906 2.089844 20.359375 2.015625 20.214844 2.027344 Z M 7.699219 2.6875 C 7.917969 2.695312 8.152344 2.738281 8.40625 2.808594 C 9.082031 2.996094 9.863281 3.417969 10.683594 4.046875 C 10.933594 4.242188 11.195312 4.460938 11.453125 4.695312 C 10.710938 5.433594 9.976562 6.300781 9.269531 7.269531 C 8.078125 7.394531 6.957031 7.601562 5.949219 7.875 C 5.875 7.535156 5.8125 7.199219 5.773438 6.882812 C 5.636719 5.859375 5.660156 4.972656 5.835938 4.292969 C 6.011719 3.613281 6.316406 3.15625 6.75 2.90625 C 7.019531 2.75 7.335938 2.675781 7.699219 2.6875 Z M 16.300781 2.691406 C 16.664062 2.675781 16.980469 2.75 17.25 2.90625 C 17.683594 3.15625 17.988281 3.613281 18.164062 4.292969 C 18.339844 4.972656 18.363281 5.859375 18.226562 6.882812 C 18.1875 7.199219 18.125 7.535156 18.050781 7.875 C 17.042969 7.601562 15.921875 7.394531 14.730469 7.269531 C 14.023438 6.300781 13.289062 5.433594 12.546875 4.695312 C 12.804688 4.464844 13.0625 4.242188 13.316406 4.046875 C 14.136719 3.417969 14.917969 2.996094 15.59375 2.808594 C 15.847656 2.738281 16.082031 2.699219 16.300781 2.691406 Z M 20.785156 3.941406 L 20.042969 4.050781 C 19.835938 4.082031 19.695312 4.273438 19.726562 4.480469 C 19.753906 4.664062 19.914062 4.800781 20.097656 4.800781 C 20.117188 4.800781 20.132812 4.796875 20.152344 4.792969 L 20.894531 4.683594 C 21.097656 4.652344 21.242188 4.460938 21.210938 4.257812 C 21.179688 4.050781 20.988281 3.914062 20.785156 3.941406 Z M 12 5.210938 C 12.582031 5.785156 13.164062 6.449219 13.730469 7.1875 C 13.167969 7.148438 12.589844 7.125 12 7.125 C 11.410156 7.125 10.832031 7.148438 10.265625 7.1875 C 10.835938 6.449219 11.417969 5.785156 12 5.210938 Z M 20.1875 5.851562 C 19.980469 5.839844 19.800781 5.996094 19.789062 6.203125 C 19.777344 6.410156 19.9375 6.589844 20.144531 6.601562 L 20.890625 6.644531 C 20.898438 6.644531 20.90625 6.644531 20.914062 6.644531 C 21.109375 6.644531 21.277344 6.488281 21.289062 6.289062 C 21.300781 6.082031 21.140625 5.90625 20.933594 5.894531 Z M 12 7.875 C 12.796875 7.875 13.574219 7.914062 14.320312 7.984375 C 14.753906 8.59375 15.171875 9.246094 15.570312 9.9375 C 15.972656 10.628906 16.324219 11.320312 16.640625 12 C 16.324219 12.679688 15.972656 13.371094 15.570312 14.0625 C 15.171875 14.753906 14.753906 15.40625 14.320312 16.015625 C 13.574219 16.085938 12.796875 16.125 12 16.125 C 11.203125 16.125 10.425781 16.085938 9.679688 16.015625 C 9.246094 15.40625 8.824219 14.753906 8.425781 14.0625 C 8.027344 13.371094 7.675781 12.679688 7.359375 12 C 7.675781 11.316406 8.027344 10.628906 8.425781 9.9375 C 8.824219 9.246094 9.246094 8.59375 9.679688 7.984375 C 10.425781 7.914062 11.203125 7.875 12 7.875 Z M 8.699219 8.09375 C 8.382812 8.5625 8.074219 9.050781 7.777344 9.5625 C 7.480469 10.074219 7.214844 10.585938 6.964844 11.09375 C 6.613281 10.230469 6.328125 9.398438 6.121094 8.605469 C 6.910156 8.390625 7.773438 8.214844 8.699219 8.09375 Z M 15.300781 8.09375 C 16.226562 8.214844 17.089844 8.390625 17.878906 8.605469 C 17.671875 9.398438 17.386719 10.234375 17.035156 11.09375 C 16.785156 10.585938 16.515625 10.074219 16.222656 9.5625 C 15.925781 9.050781 15.617188 8.5625 15.300781 8.09375 Z M 5.402344 8.820312 C 5.667969 9.832031 6.050781 10.902344 6.539062 12 C 6.050781 13.097656 5.667969 14.167969 5.402344 15.179688 C 5.070312 15.070312 4.75 14.957031 4.453125 14.835938 C 3.5 14.441406 2.742188 13.972656 2.242188 13.484375 C 1.742188 12.992188 1.5 12.5 1.5 12 C 1.5 11.5 1.742188 11.007812 2.242188 10.515625 C 2.742188 10.027344 3.5 9.558594 4.453125 9.164062 C 4.75 9.042969 5.070312 8.929688 5.402344 8.820312 Z M 18.597656 8.820312 C 18.929688 8.929688 19.25 9.042969 19.546875 9.164062 C 20.5 9.558594 21.257812 10.027344 21.757812 10.515625 C 22.257812 11.007812 22.5 11.5 22.5 12 C 22.5 12.5 22.257812 12.992188 21.757812 13.484375 C 21.257812 13.972656 20.5 14.441406 19.546875 14.835938 C 19.25 14.957031 18.929688 15.070312 18.597656 15.179688 C 18.332031 14.167969 17.949219 13.097656 17.460938 12 C 17.949219 10.902344 18.332031 9.832031 18.597656 8.820312 Z M 12 9.375 C 10.554688 9.375 9.375 10.554688 9.375 12 C 9.375 13.445312 10.554688 14.625 12 14.625 C 13.445312 14.625 14.625 13.445312 14.625 12 C 14.625 10.554688 13.445312 9.375 12 9.375 Z M 12 10.125 C 13.039062 10.125 13.875 10.960938 13.875 12 C 13.875 13.039062 13.039062 13.875 12 13.875 C 10.960938 13.875 10.125 13.039062 10.125 12 C 10.125 10.960938 10.960938 10.125 12 10.125 Z M 17.035156 12.90625 C 17.386719 13.765625 17.671875 14.601562 17.878906 15.394531 C 17.089844 15.609375 16.226562 15.785156 15.300781 15.90625 C 15.617188 15.4375 15.925781 14.949219 16.222656 14.4375 C 16.515625 13.925781 16.785156 13.414062 17.035156 12.90625 Z M 6.964844 12.90625 C 7.214844 13.414062 7.480469 13.925781 7.777344 14.4375 C 8.074219 14.949219 8.382812 15.4375 8.699219 15.90625 C 7.773438 15.785156 6.910156 15.609375 6.121094 15.394531 C 6.328125 14.601562 6.613281 13.769531 6.964844 12.90625 Z M 5.949219 16.125 C 6.957031 16.398438 8.078125 16.605469 9.269531 16.730469 C 9.976562 17.699219 10.710938 18.566406 11.453125 19.304688 C 11.195312 19.539062 10.933594 19.757812 10.683594 19.953125 C 9.863281 20.582031 9.082031 21.003906 8.40625 21.191406 C 7.730469 21.382812 7.183594 21.34375 6.75 21.09375 C 6.316406 20.84375 6.007812 20.386719 5.835938 19.707031 C 5.660156 19.027344 5.636719 18.140625 5.773438 17.117188 C 5.8125 16.800781 5.875 16.464844 5.949219 16.125 Z M 18.050781 16.125 C 18.125 16.464844 18.1875 16.800781 18.226562 17.117188 C 18.363281 18.140625 18.339844 19.027344 18.164062 19.707031 C 17.988281 20.386719 17.683594 20.84375 17.25 21.09375 C 16.816406 21.34375 16.269531 21.382812 15.59375 21.191406 C 14.917969 21.003906 14.136719 20.582031 13.316406 19.953125 C 13.0625 19.757812 12.804688 19.535156 12.546875 19.304688 C 13.289062 18.566406 14.023438 17.699219 14.730469 16.730469 C 15.921875 16.605469 17.042969 16.398438 18.050781 16.125 Z M 3.230469 16.394531 C 3.023438 16.367188 2.835938 16.511719 2.808594 16.714844 C 2.78125 16.921875 2.925781 17.109375 3.128906 17.136719 L 3.875 17.234375 C 3.890625 17.238281 3.90625 17.238281 3.921875 17.238281 C 4.109375 17.238281 4.269531 17.101562 4.292969 16.914062 C 4.324219 16.707031 4.179688 16.519531 3.972656 16.492188 Z M 10.265625 16.8125 C 10.832031 16.851562 11.410156 16.875 12 16.875 C 12.589844 16.875 13.167969 16.851562 13.730469 16.8125 C 13.164062 17.550781 12.582031 18.214844 12 18.789062 C 11.417969 18.214844 10.835938 17.550781 10.265625 16.8125 Z M 3.808594 18.308594 L 3.0625 18.332031 C 2.851562 18.339844 2.691406 18.511719 2.699219 18.71875 C 2.703125 18.921875 2.871094 19.082031 3.074219 19.082031 C 3.078125 19.082031 3.082031 19.082031 3.085938 19.082031 L 3.835938 19.054688 C 4.042969 19.050781 4.203125 18.875 4.199219 18.667969 C 4.191406 18.460938 4.015625 18.292969 3.808594 18.308594 Z M 4.132812 20.066406 C 4.085938 20.0625 4.035156 20.066406 3.988281 20.082031 L 3.269531 20.300781 C 3.070312 20.363281 2.960938 20.570312 3.019531 20.769531 C 3.070312 20.929688 3.21875 21.035156 3.378906 21.035156 C 3.414062 21.035156 3.449219 21.03125 3.488281 21.019531 L 4.207031 20.800781 C 4.402344 20.738281 4.515625 20.53125 4.453125 20.332031 C 4.410156 20.183594 4.28125 20.082031 4.132812 20.066406 Z M 4.929688 21.582031 C 4.832031 21.574219 4.734375 21.605469 4.65625 21.671875 L 4.085938 22.160156 C 3.929688 22.292969 3.914062 22.53125 4.046875 22.6875 C 4.121094 22.777344 4.226562 22.820312 4.332031 22.820312 C 4.417969 22.820312 4.503906 22.789062 4.578125 22.726562 L 5.144531 22.238281 C 5.300781 22.105469 5.320312 21.867188 5.1875 21.710938 C 5.117188 21.632812 5.023438 21.589844 4.929688 21.582031 Z M 4.929688 21.582031 "/>
</g>
</svg>
